<svg 
 xmlns="http://www.w3.org/2000/svg"
 xmlns:xlink="http://www.w3.org/1999/xlink"
 width="60px" height="60px">
<path fill-rule="evenodd"  fill="rgb(56, 56, 52)"
 d="M30.000,59.1000 C13.432,59.1000 0.000,46.568 0.000,30.000 C0.000,13.431 13.432,-0.000 30.000,-0.000 C46.568,-0.000 60.000,13.431 60.000,30.000 C60.000,46.568 46.568,59.1000 30.000,59.1000 ZM29.912,11.670 C19.072,11.670 10.252,18.828 10.252,27.626 C10.252,35.513 17.246,42.118 26.694,43.367 C27.334,43.505 28.206,43.789 28.426,44.336 C28.624,44.833 28.556,45.612 28.490,46.114 C28.490,46.114 28.259,47.501 28.209,47.797 C28.124,48.294 27.814,49.741 29.912,48.857 C32.011,47.973 41.235,42.190 45.360,37.442 L45.359,37.442 C48.208,34.317 49.573,31.146 49.573,27.626 C49.573,18.828 40.753,11.670 29.912,11.670 ZM43.026,32.706 L37.517,32.706 L37.516,32.706 C37.413,32.706 37.320,32.665 37.251,32.599 C37.250,32.597 37.247,32.595 37.246,32.594 C37.244,32.592 37.242,32.589 37.241,32.588 C37.175,32.519 37.133,32.426 37.133,32.323 L37.133,32.323 L37.133,23.757 L37.133,23.757 C37.133,23.654 37.174,23.562 37.240,23.493 C37.242,23.491 37.244,23.489 37.246,23.486 C37.247,23.485 37.249,23.484 37.250,23.482 C37.319,23.415 37.413,23.374 37.516,23.374 L37.517,23.374 L43.026,23.374 C43.237,23.374 43.408,23.546 43.408,23.757 L43.408,25.136 C43.408,25.348 43.237,25.519 43.026,25.519 L39.279,25.519 L39.279,26.967 L43.026,26.967 C43.237,26.967 43.408,27.139 43.408,27.350 L43.408,28.729 C43.408,28.941 43.237,29.112 43.026,29.112 L39.279,29.112 L39.279,30.560 L43.026,30.560 C43.237,30.560 43.408,30.732 43.408,30.943 L43.408,32.323 C43.408,32.534 43.237,32.706 43.026,32.706 ZM35.410,32.705 L34.031,32.705 C33.997,32.705 33.964,32.701 33.933,32.692 C33.931,32.692 33.929,32.691 33.927,32.691 C33.919,32.688 33.910,32.686 33.901,32.683 C33.897,32.681 33.894,32.680 33.890,32.678 C33.883,32.676 33.877,32.673 33.871,32.670 C33.865,32.668 33.859,32.665 33.853,32.661 C33.849,32.660 33.846,32.658 33.842,32.656 C33.834,32.651 33.826,32.646 33.818,32.641 C33.817,32.640 33.816,32.639 33.814,32.638 C33.778,32.613 33.744,32.582 33.717,32.544 L29.786,27.235 L29.786,32.323 C29.786,32.534 29.615,32.705 29.403,32.705 L28.024,32.705 C27.813,32.705 27.641,32.534 27.641,32.323 L27.641,23.757 C27.641,23.545 27.813,23.374 28.024,23.374 L29.403,23.374 C29.408,23.374 29.412,23.375 29.417,23.375 C29.423,23.375 29.430,23.376 29.436,23.376 C29.443,23.377 29.450,23.377 29.456,23.378 C29.462,23.379 29.468,23.380 29.473,23.381 C29.480,23.382 29.487,23.384 29.495,23.386 C29.499,23.387 29.504,23.388 29.508,23.389 C29.516,23.391 29.523,23.394 29.531,23.397 C29.535,23.398 29.539,23.399 29.543,23.401 C29.551,23.403 29.558,23.407 29.565,23.410 C29.569,23.412 29.573,23.414 29.577,23.416 C29.584,23.419 29.591,23.424 29.598,23.428 C29.602,23.429 29.605,23.432 29.609,23.434 C29.616,23.439 29.623,23.444 29.629,23.448 C29.633,23.450 29.636,23.453 29.639,23.456 C29.646,23.461 29.653,23.467 29.659,23.473 C29.662,23.475 29.664,23.477 29.667,23.480 C29.674,23.487 29.682,23.495 29.690,23.503 C29.690,23.504 29.691,23.504 29.692,23.505 C29.703,23.518 29.713,23.531 29.722,23.544 L33.648,28.846 L33.648,23.757 C33.648,23.545 33.819,23.374 34.031,23.374 L35.410,23.374 C35.622,23.374 35.793,23.545 35.793,23.757 L35.793,32.323 C35.793,32.534 35.622,32.705 35.410,32.705 ZM25.918,32.705 L24.538,32.705 C24.327,32.705 24.155,32.534 24.155,32.323 L24.155,23.757 C24.155,23.545 24.327,23.374 24.538,23.374 L25.918,23.374 C26.129,23.374 26.301,23.545 26.301,23.757 L26.301,32.323 C26.301,32.534 26.129,32.705 25.918,32.705 ZM22.593,32.706 L17.084,32.706 L17.084,32.706 C16.981,32.706 16.888,32.665 16.819,32.599 C16.817,32.597 16.815,32.595 16.813,32.594 C16.811,32.592 16.810,32.589 16.808,32.588 C16.742,32.519 16.701,32.426 16.701,32.323 L16.701,32.323 L16.701,23.757 C16.701,23.545 16.873,23.374 17.084,23.374 L18.463,23.374 C18.675,23.374 18.846,23.545 18.846,23.757 L18.846,30.560 L22.593,30.560 C22.805,30.560 22.976,30.732 22.976,30.943 L22.976,32.323 C22.976,32.534 22.805,32.706 22.593,32.706 Z"/>
</svg>