<svg 
 xmlns="http://www.w3.org/2000/svg"
 xmlns:xlink="http://www.w3.org/1999/xlink"
 width="60px" height="61px">
<path fill-rule="evenodd"  fill="rgb(56, 56, 52)"
 d="M30.000,0.969 C13.431,0.969 0.000,14.444 0.000,31.066 C0.000,45.717 10.435,57.916 24.254,60.607 L24.254,37.777 L16.579,37.777 L16.579,28.860 L24.254,28.860 L24.254,22.283 C24.254,14.652 28.900,10.496 35.686,10.496 C38.937,10.496 41.730,10.739 42.545,10.847 L42.545,18.823 L37.838,18.825 C34.147,18.825 33.433,20.584 33.433,23.167 L33.433,28.860 L42.235,28.860 L41.088,37.777 L33.433,37.777 L33.433,60.962 C48.384,59.252 60.000,46.524 60.000,31.066 C60.000,14.444 46.569,0.969 30.000,0.969 Z"/>
</svg>